<?xml version="1.0" standalone="no"?><!DOCTYPE svg PUBLIC "-//W3C//DTD SVG 1.1//EN" "http://www.w3.org/Graphics/SVG/1.1/DTD/svg11.dtd"><svg class="icon" height="512" viewBox="0 0 1024 1024" version="1.1" xmlns="http://www.w3.org/2000/svg"><path d="M515 599.1c-86.1 0-156.2-70-156.2-156s70.1-156 156.2-156 156.2 70 156.2 156-70.1 156-156.2 156z m0-271.2c-63.6 0-115.4 51.7-115.4 115.2S451.4 558.4 515 558.4c63.6 0 115.4-51.7 115.4-115.2S578.7 327.9 515 327.9z" fill="#FF696E" /><path d="M511.9 963.2c-34.1 0-68-3.8-101.4-11.4-50.1-11.4-97.4-31-140.8-58.3-9.5-6-12.4-18.6-6.4-28.1s18.6-12.4 28.1-6.4c78.1 49.2 172.1 70.9 264.5 61.1 46.1-4.9 90.7-17.3 132.5-36.9 43.2-20.3 82.4-47.9 116.5-81.9 40.5-40.5 71.6-87.7 92.5-140.5 20.1-51 29.8-104.8 28.8-159.8-1-55-12.7-108.3-34.7-158.4-22.9-52-55.9-98.2-98.1-137.3-36.3-33.6-79.9-59.7-129.5-77.6-48-17.3-99-26.1-151.8-26.1-52.7 0-103.8 8.8-151.8 26.1-49.6 17.9-93.2 44-129.5 77.6-37.2 34.5-67.5 74.7-89.8 119.5-21.5 43.2-35.2 89.5-40.6 137.7-10.9 96.8 12.7 194.5 66.3 275 20.7 31.1 63.3 40.8 96.9 22.1l81-45.1c51-28.4 108.9-43.5 167.3-43.5 58.4 0 116.3 15 167.3 43.5l60.2 33.6c9.8 5.5 13.4 17.9 7.9 27.7s-17.9 13.4-27.7 7.9L659.5 750c-45-25.1-96-38.3-147.5-38.3S409.5 725 364.5 750l-81 45.1c-17.8 9.9-37.2 14.6-56.3 14.6-37 0-73-17.6-94.3-49.7C73.9 671.4 48 564.1 60 457.8c6-52.9 21-103.8 44.6-151.3 24.5-49.3 57.7-93.4 98.6-131.3 40.3-37.3 88.6-66.3 143.3-86 52.3-18.8 108-28.4 165.5-28.4s113.2 9.6 165.6 28.5c54.8 19.8 103 48.7 143.3 86 46.4 42.9 82.6 93.7 107.7 150.8 24.2 55.1 37 113.6 38.2 174 1.1 60.5-9.5 119.5-31.6 175.5-22.9 58-57.1 109.9-101.6 154.4-37.4 37.4-80.5 67.7-128 90-45.9 21.6-94.9 35.2-145.5 40.6-16 1.7-32.1 2.6-48.2 2.6z" fill="#FF696E" /></svg>