<?xml version="1.0" encoding="utf-8"?>
<!-- Generator: Adobe Illustrator 21.0.2, SVG Export Plug-In . SVG Version: 6.00 Build 0)  -->
<svg version="1.1" id="Capa_1" xmlns="http://www.w3.org/2000/svg" xmlns:xlink="http://www.w3.org/1999/xlink" x="0px" y="0px"
	 viewBox="0 0 1024 512" style="enable-background:new 0 0 1024 512;" xml:space="preserve">
<style type="text/css">
	.st0{fill:url(#SVGID_1_);}
	.st1{fill:url(#SVGID_2_);}
</style>
<linearGradient id="SVGID_1_" gradientUnits="userSpaceOnUse" x1="514.8452" y1="471.4308" x2="514.8452" y2="175.4734" gradientTransform="matrix(1 0 0 -1 0 514)">
	<stop  offset="0" style="stop-color:#00C9FF"/>
	<stop  offset="1" style="stop-color:#000000"/>
</linearGradient>
<path class="st0" d="M514.8,338.5c-81.6,0-148.2-66.4-148.2-148s66.6-148,148.2-148S663,109,663,190.5S596.6,338.5,514.8,338.5z
	 M514.8,81.3c-60.3,0-109.5,49.1-109.5,109.3S454.5,300,514.8,300s109.5-49.1,109.5-109.3S575.2,81.3,514.8,81.3L514.8,81.3z"/>
<linearGradient id="SVGID_2_" gradientUnits="userSpaceOnUse" x1="512.0006" y1="686" x2="512.0006" y2="-170" gradientTransform="matrix(1 0 0 -1 0 514)">
	<stop  offset="0" style="stop-color:#00C9FF"/>
	<stop  offset="1" style="stop-color:#000000"/>
</linearGradient>
<path class="st1" d="M512,684c-32.4,0-64.5-3.6-96.2-10.8c-47.4-10.8-92.4-29.4-133.6-55.2c-9.1-5.7-11.8-17.6-6.1-26.6
	s17.6-11.8,26.6-6.1c74,46.7,163.2,67.3,251,57.9c43.6-4.7,86.1-16.3,125.8-35.1c41-19.2,78.2-45.5,110.6-77.8
	C828.6,491.8,858,447,878,397c19-48.4,28.3-99.4,27.3-151.6c-0.9-52.2-12-102.6-32.8-150.3c-21.8-49.3-53.1-93.2-93-130.3
	c-34.3-31.9-75.9-56.5-122.9-73.6c-45.5-16.3-93.9-24.7-144-24.7c-50.1,0-98.5,8.3-144,24.7c-47,17.1-88.4,41.7-122.9,73.6
	C210.4-2.4,181.5,35.5,160.5,78c-20.5,41-33.4,85-38.5,130.7c-10.2,91.8,12.1,184.6,63,260.9c19.5,29.4,60,38.7,91.8,20.9l76.8-42.7
	c48.4-26.9,103.2-41.4,158.6-41.4s110.2,14.2,158.6,41.4l57.1,31.9c9.3,5.3,12.7,17.1,7.6,26.4c-5.1,9.3-17.1,12.7-26.2,7.6
	L652,481.8c-42.7-23.7-91.1-36.2-140-36.2s-97.3,12.5-140,36.2l-76.8,42.7c-16.9,9.5-35.3,13.8-53.3,13.8
	c-35.1,0-69.2-16.7-89.4-47.2c-56-83.9-80.6-185.7-69.2-286.5c5.7-50.1,19.9-98.5,42.3-143.4c23.3-46.7,54.8-88.6,93.5-124.6
	c38.1-35.5,84-63,135.8-81.6C404.4-162.9,457.4-172,512-172s107.4,9.1,157.1,27.1c52,18.8,97.7,46.3,135.8,81.6
	c44,40.6,78.4,89,102.3,143c23,52.4,35.1,107.8,36.2,165.1c0.9,57.5-9.1,113.5-30,166.6c-21.6,55-54.1,104.3-96.4,146.5
	c-35.5,35.5-76.5,64.3-121.4,85.4c-43.6,20.5-90.1,33.4-138.1,38.5C542.5,683.1,527.2,684,512,684L512,684z"/>
</svg>
